<svg width="46" height="46" viewBox="0 0 46 46" fill="none" xmlns="http://www.w3.org/2000/svg">
<path fill-rule="evenodd" clip-rule="evenodd" d="M0 9.58333C0 4.2906 4.2906 0 9.58333 0H36.4167C41.7095 0 46 4.2906 46 9.58333V36.4167C46 41.7095 41.7095 46 36.4167 46H9.58333C4.2906 46 0 41.7095 0 36.4167V9.58333ZM23.0381 11.4567C23.6568 11.4567 24.2216 11.8079 24.4955 12.3626L26.9831 17.4032L32.5458 18.2114C33.1578 18.3003 33.6664 18.7292 33.8575 19.3174C34.0487 19.906 33.8892 20.5518 33.4463 20.9834L29.4213 24.907L30.3715 30.4471C30.476 31.0569 30.2253 31.673 29.7249 32.0367C29.2243 32.4004 28.5609 32.4481 28.0132 32.1604L23.0381 29.5448L18.0627 32.1604C17.5152 32.4481 16.8517 32.4004 16.3512 32.0367C15.8507 31.673 15.6001 31.0569 15.7046 30.4471L16.6548 24.907L12.6297 20.9834C12.1868 20.5518 12.0273 19.906 12.2185 19.3174C12.4096 18.7292 12.9182 18.3003 13.5304 18.2114L19.0931 17.4032L21.5806 12.3626C21.8543 11.8079 22.4194 11.4567 23.0381 11.4567Z" fill="#FFBF3D"/>
</svg>
